<svg width="333" height="19" viewBox="0 0 333 19" fill="none" xmlns="http://www.w3.org/2000/svg">
<path d="M0.5 9.5H64.5" stroke="#4BC8F5"/>
<path opacity="0.8" d="M92.332 4.432V16H90.436V8.528C90.436 8.22933 90.452 7.90667 90.484 7.56L86.988 14.128C86.8227 14.4427 86.5693 14.6 86.228 14.6H85.924C85.5827 14.6 85.3293 14.4427 85.164 14.128L81.628 7.536C81.644 7.712 81.6573 7.88533 81.668 8.056C81.6787 8.22667 81.684 8.384 81.684 8.528V16H79.788V4.432H81.412C81.508 4.432 81.5907 4.43467 81.66 4.44C81.7293 4.44533 81.7907 4.45867 81.844 4.48C81.9027 4.50133 81.9533 4.536 81.996 4.584C82.044 4.632 82.0893 4.696 82.132 4.776L85.596 11.2C85.6867 11.3707 85.7693 11.5467 85.844 11.728C85.924 11.9093 86.0013 12.096 86.076 12.288C86.1507 12.0907 86.228 11.9013 86.308 11.72C86.388 11.5333 86.4733 11.3547 86.564 11.184L89.98 4.776C90.0227 4.696 90.068 4.632 90.116 4.584C90.164 4.536 90.2147 4.50133 90.268 4.48C90.3267 4.45867 90.3907 4.44533 90.46 4.44C90.5293 4.43467 90.612 4.432 90.708 4.432H92.332ZM98.673 6.144V9.352H102.721V11.008H98.673V14.28H103.809V16H96.513V4.432H103.809V6.144H98.673ZM114.092 14.224V16H107.316V4.432H109.468V14.224H114.092ZM127.854 10.216C127.854 11.064 127.713 11.8507 127.43 12.576C127.153 13.296 126.758 13.92 126.246 14.448C125.734 14.976 125.118 15.3893 124.398 15.688C123.678 15.9813 122.878 16.128 121.998 16.128C121.124 16.128 120.326 15.9813 119.606 15.688C118.886 15.3893 118.268 14.976 117.75 14.448C117.238 13.92 116.841 13.296 116.558 12.576C116.276 11.8507 116.134 11.064 116.134 10.216C116.134 9.368 116.276 8.584 116.558 7.864C116.841 7.13867 117.238 6.512 117.75 5.984C118.268 5.456 118.886 5.04533 119.606 4.752C120.326 4.45333 121.124 4.304 121.998 4.304C122.585 4.304 123.137 4.37333 123.654 4.512C124.172 4.64533 124.646 4.83733 125.078 5.088C125.51 5.33333 125.897 5.63467 126.238 5.992C126.585 6.344 126.878 6.73867 127.118 7.176C127.358 7.61333 127.54 8.088 127.662 8.6C127.79 9.112 127.854 9.65067 127.854 10.216ZM125.654 10.216C125.654 9.58133 125.569 9.01333 125.398 8.512C125.228 8.00533 124.985 7.576 124.67 7.224C124.356 6.872 123.972 6.60267 123.518 6.416C123.07 6.22933 122.564 6.136 121.998 6.136C121.433 6.136 120.924 6.22933 120.47 6.416C120.022 6.60267 119.638 6.872 119.318 7.224C119.004 7.576 118.761 8.00533 118.59 8.512C118.42 9.01333 118.334 9.58133 118.334 10.216C118.334 10.8507 118.42 11.4213 118.59 11.928C118.761 12.4293 119.004 12.856 119.318 13.208C119.638 13.5547 120.022 13.8213 120.47 14.008C120.924 14.1947 121.433 14.288 121.998 14.288C122.564 14.288 123.07 14.1947 123.518 14.008C123.972 13.8213 124.356 13.5547 124.67 13.208C124.985 12.856 125.228 12.4293 125.398 11.928C125.569 11.4213 125.654 10.8507 125.654 10.216ZM133.496 9.28H134C134.203 9.28 134.371 9.25333 134.504 9.2C134.638 9.14133 134.752 9.05067 134.848 8.928L138.04 4.888C138.174 4.71733 138.312 4.6 138.456 4.536C138.606 4.46667 138.792 4.432 139.016 4.432H140.872L136.976 9.24C136.747 9.53333 136.51 9.74133 136.264 9.864C136.44 9.928 136.598 10.0187 136.736 10.136C136.88 10.248 137.016 10.3973 137.144 10.584L141.16 16H139.264C139.008 16 138.816 15.9653 138.688 15.896C138.566 15.8213 138.462 15.7147 138.376 15.576L135.104 11.304C135.003 11.16 134.886 11.0587 134.752 11C134.619 10.9413 134.427 10.912 134.176 10.912H133.496V16H131.344V4.432H133.496V9.28ZM150.025 11.632L148.617 7.784C148.548 7.61333 148.476 7.41067 148.401 7.176C148.326 6.94133 148.252 6.688 148.177 6.416C148.108 6.688 148.036 6.944 147.961 7.184C147.886 7.41867 147.814 7.624 147.745 7.8L146.345 11.632H150.025ZM153.825 16H152.161C151.974 16 151.822 15.9547 151.705 15.864C151.588 15.768 151.5 15.6507 151.441 15.512L150.577 13.152H145.785L144.921 15.512C144.878 15.6347 144.796 15.7467 144.673 15.848C144.55 15.9493 144.398 16 144.217 16H142.537L147.089 4.432H149.281L153.825 16ZM163.398 14.224V16H156.622V4.432H158.774V14.224H163.398ZM168.687 9.28H169.191C169.394 9.28 169.562 9.25333 169.695 9.2C169.828 9.14133 169.943 9.05067 170.039 8.928L173.231 4.888C173.364 4.71733 173.503 4.6 173.647 4.536C173.796 4.46667 173.983 4.432 174.207 4.432H176.063L172.167 9.24C171.938 9.53333 171.7 9.74133 171.455 9.864C171.631 9.928 171.788 10.0187 171.927 10.136C172.071 10.248 172.207 10.3973 172.335 10.584L176.351 16H174.455C174.199 16 174.007 15.9653 173.879 15.896C173.756 15.8213 173.652 15.7147 173.567 15.576L170.295 11.304C170.194 11.16 170.076 11.0587 169.943 11C169.81 10.9413 169.618 10.912 169.367 10.912H168.687V16H166.535V4.432H168.687V9.28ZM185.216 11.632L183.808 7.784C183.738 7.61333 183.666 7.41067 183.592 7.176C183.517 6.94133 183.442 6.688 183.368 6.416C183.298 6.688 183.226 6.944 183.152 7.184C183.077 7.41867 183.005 7.624 182.936 7.8L181.536 11.632H185.216ZM189.016 16H187.352C187.165 16 187.013 15.9547 186.896 15.864C186.778 15.768 186.69 15.6507 186.632 15.512L185.768 13.152H180.976L180.112 15.512C180.069 15.6347 179.986 15.7467 179.864 15.848C179.741 15.9493 179.589 16 179.408 16H177.728L182.28 4.432H184.472L189.016 16ZM201.565 4.432V16H200.461C200.29 16 200.146 15.9733 200.029 15.92C199.917 15.8613 199.808 15.7653 199.701 15.632L193.661 7.92C193.693 8.272 193.709 8.59733 193.709 8.896V16H191.813V4.432H192.941C193.032 4.432 193.109 4.43733 193.173 4.448C193.242 4.45333 193.301 4.46933 193.349 4.496C193.402 4.51733 193.453 4.552 193.501 4.6C193.549 4.64267 193.602 4.70133 193.661 4.776L199.725 12.52C199.709 12.3333 199.696 12.1493 199.685 11.968C199.674 11.7867 199.669 11.6187 199.669 11.464V4.432H201.565ZM217.392 6.536C217.328 6.648 217.258 6.73067 217.184 6.784C217.114 6.832 217.026 6.856 216.92 6.856C216.808 6.856 216.685 6.816 216.552 6.736C216.424 6.65067 216.269 6.55733 216.088 6.456C215.906 6.35467 215.693 6.264 215.448 6.184C215.208 6.09867 214.922 6.056 214.592 6.056C214.293 6.056 214.032 6.09333 213.808 6.168C213.584 6.23733 213.394 6.336 213.24 6.464C213.09 6.592 212.978 6.74667 212.904 6.928C212.829 7.104 212.792 7.29867 212.792 7.512C212.792 7.784 212.866 8.01067 213.016 8.192C213.17 8.37333 213.373 8.528 213.624 8.656C213.874 8.784 214.16 8.89867 214.48 9C214.8 9.10133 215.128 9.21067 215.464 9.328C215.8 9.44 216.128 9.57333 216.448 9.728C216.768 9.87733 217.053 10.0693 217.304 10.304C217.554 10.5333 217.754 10.816 217.904 11.152C218.058 11.488 218.136 11.896 218.136 12.376C218.136 12.8987 218.045 13.3893 217.864 13.848C217.688 14.3013 217.426 14.6987 217.08 15.04C216.738 15.376 216.32 15.6427 215.824 15.84C215.328 16.032 214.76 16.128 214.12 16.128C213.752 16.128 213.389 16.0907 213.032 16.016C212.674 15.9467 212.33 15.8453 212 15.712C211.674 15.5787 211.368 15.4187 211.08 15.232C210.792 15.0453 210.536 14.8373 210.312 14.608L210.944 13.576C210.997 13.5013 211.066 13.44 211.152 13.392C211.237 13.3387 211.328 13.312 211.424 13.312C211.557 13.312 211.701 13.368 211.856 13.48C212.01 13.5867 212.194 13.7067 212.408 13.84C212.621 13.9733 212.869 14.096 213.152 14.208C213.44 14.3147 213.784 14.368 214.184 14.368C214.797 14.368 215.272 14.224 215.608 13.936C215.944 13.6427 216.112 13.224 216.112 12.68C216.112 12.376 216.034 12.128 215.88 11.936C215.73 11.744 215.53 11.584 215.28 11.456C215.029 11.3227 214.744 11.2107 214.424 11.12C214.104 11.0293 213.778 10.9307 213.448 10.824C213.117 10.7173 212.792 10.5893 212.472 10.44C212.152 10.2907 211.866 10.096 211.616 9.856C211.365 9.616 211.162 9.31733 211.008 8.96C210.858 8.59733 210.784 8.152 210.784 7.624C210.784 7.20267 210.866 6.792 211.032 6.392C211.202 5.992 211.448 5.63733 211.768 5.328C212.088 5.01867 212.482 4.77067 212.952 4.584C213.421 4.39733 213.96 4.304 214.568 4.304C215.25 4.304 215.88 4.41067 216.456 4.624C217.032 4.83733 217.522 5.136 217.928 5.52L217.392 6.536ZM231.885 10.216C231.885 11.064 231.744 11.8427 231.461 12.552C231.178 13.2613 230.781 13.872 230.269 14.384C229.757 14.896 229.141 15.2933 228.421 15.576C227.701 15.8587 226.901 16 226.021 16H221.613V4.432H226.021C226.901 4.432 227.701 4.576 228.421 4.864C229.141 5.14667 229.757 5.544 230.269 6.056C230.781 6.56267 231.178 7.17067 231.461 7.88C231.744 8.58933 231.885 9.368 231.885 10.216ZM229.677 10.216C229.677 9.58133 229.592 9.01333 229.421 8.512C229.256 8.00533 229.013 7.57867 228.693 7.232C228.378 6.88 227.994 6.61067 227.541 6.424C227.093 6.23733 226.586 6.144 226.021 6.144H223.773V14.288H226.021C226.586 14.288 227.093 14.1947 227.541 14.008C227.994 13.8213 228.378 13.5547 228.693 13.208C229.013 12.856 229.256 12.4293 229.421 11.928C229.592 11.4213 229.677 10.8507 229.677 10.216ZM244.921 10.2V14.88C244.334 15.312 243.708 15.6293 243.041 15.832C242.38 16.0293 241.67 16.128 240.913 16.128C239.969 16.128 239.113 15.9813 238.345 15.688C237.582 15.3947 236.929 14.9867 236.385 14.464C235.846 13.9413 235.43 13.3173 235.137 12.592C234.844 11.8667 234.697 11.0747 234.697 10.216C234.697 9.34667 234.838 8.54933 235.121 7.824C235.404 7.09867 235.804 6.47467 236.321 5.952C236.844 5.42933 237.476 5.024 238.217 4.736C238.958 4.448 239.79 4.304 240.713 4.304C241.182 4.304 241.62 4.34133 242.025 4.416C242.436 4.49067 242.814 4.59467 243.161 4.728C243.513 4.856 243.833 5.01333 244.121 5.2C244.409 5.38667 244.673 5.592 244.913 5.816L244.297 6.792C244.201 6.94667 244.076 7.04267 243.921 7.08C243.766 7.112 243.598 7.072 243.417 6.96C243.241 6.85867 243.065 6.75733 242.889 6.656C242.713 6.55467 242.516 6.46667 242.297 6.392C242.084 6.31733 241.841 6.256 241.569 6.208C241.302 6.16 240.993 6.136 240.641 6.136C240.07 6.136 239.553 6.232 239.089 6.424C238.63 6.616 238.238 6.89067 237.913 7.248C237.588 7.60533 237.337 8.03467 237.161 8.536C236.985 9.03733 236.897 9.59733 236.897 10.216C236.897 10.8773 236.99 11.4693 237.177 11.992C237.369 12.5093 237.636 12.9493 237.977 13.312C238.324 13.6693 238.74 13.944 239.225 14.136C239.71 14.3227 240.252 14.416 240.849 14.416C241.276 14.416 241.657 14.3707 241.993 14.28C242.329 14.1893 242.657 14.0667 242.977 13.912V11.816H241.521C241.382 11.816 241.273 11.7787 241.193 11.704C241.118 11.624 241.081 11.528 241.081 11.416V10.2H244.921ZM253.196 9.392C253.143 9.47733 253.087 9.53867 253.028 9.576C252.97 9.608 252.895 9.624 252.804 9.624C252.708 9.624 252.604 9.59733 252.492 9.544C252.386 9.49067 252.26 9.432 252.116 9.368C251.972 9.29867 251.807 9.23733 251.62 9.184C251.439 9.13067 251.223 9.104 250.972 9.104C250.583 9.104 250.276 9.18667 250.052 9.352C249.834 9.51733 249.724 9.73333 249.724 10C249.724 10.176 249.78 10.3253 249.892 10.448C250.01 10.5653 250.162 10.6693 250.348 10.76C250.54 10.8507 250.756 10.9333 250.996 11.008C251.236 11.0773 251.479 11.1547 251.724 11.24C251.975 11.3253 252.22 11.424 252.46 11.536C252.7 11.6427 252.914 11.7813 253.1 11.952C253.292 12.1173 253.444 12.3173 253.556 12.552C253.674 12.7867 253.732 13.0693 253.732 13.4C253.732 13.7947 253.66 14.16 253.516 14.496C253.378 14.8267 253.17 15.1147 252.892 15.36C252.615 15.6 252.271 15.7893 251.86 15.928C251.455 16.0613 250.986 16.128 250.452 16.128C250.17 16.128 249.892 16.1013 249.62 16.048C249.354 16 249.095 15.9307 248.844 15.84C248.599 15.7493 248.37 15.6427 248.156 15.52C247.948 15.3973 247.764 15.264 247.604 15.12L248.06 14.368C248.119 14.2773 248.188 14.208 248.268 14.16C248.348 14.112 248.45 14.088 248.572 14.088C248.695 14.088 248.81 14.1227 248.916 14.192C249.028 14.2613 249.156 14.336 249.3 14.416C249.444 14.496 249.612 14.5707 249.804 14.64C250.002 14.7093 250.25 14.744 250.548 14.744C250.783 14.744 250.983 14.7173 251.148 14.664C251.319 14.6053 251.458 14.5307 251.564 14.44C251.676 14.3493 251.756 14.2453 251.804 14.128C251.858 14.0053 251.884 13.88 251.884 13.752C251.884 13.56 251.826 13.4027 251.708 13.28C251.596 13.1573 251.444 13.0507 251.252 12.96C251.066 12.8693 250.85 12.7893 250.604 12.72C250.364 12.6453 250.116 12.5653 249.86 12.48C249.61 12.3947 249.362 12.296 249.116 12.184C248.876 12.0667 248.66 11.92 248.468 11.744C248.282 11.568 248.13 11.352 248.012 11.096C247.9 10.84 247.844 10.5307 247.844 10.168C247.844 9.832 247.911 9.512 248.044 9.208C248.178 8.904 248.372 8.64 248.628 8.416C248.89 8.18667 249.212 8.00533 249.596 7.872C249.986 7.73333 250.434 7.664 250.94 7.664C251.506 7.664 252.02 7.75733 252.484 7.944C252.948 8.13067 253.335 8.376 253.644 8.68L253.196 9.392Z" fill="white"/>
<path d="M268.5 9.5H332.5" stroke="#4BC8F5"/>
</svg>
