<svg width="243" height="19" viewBox="0 0 243 19" fill="none" xmlns="http://www.w3.org/2000/svg">
<path d="M0 9.5H64" stroke="#4BC8F5"/>
<path opacity="0.8" d="M82.784 9.936C83.1893 9.936 83.5413 9.88533 83.84 9.784C84.144 9.68267 84.392 9.544 84.584 9.368C84.7813 9.18667 84.928 8.97333 85.024 8.728C85.12 8.48267 85.168 8.21333 85.168 7.92C85.168 7.33333 84.9733 6.88267 84.584 6.568C84.2 6.25333 83.6107 6.096 82.816 6.096H81.44V9.936H82.784ZM88.32 16H86.376C86.008 16 85.7413 15.856 85.576 15.568L83.144 11.864C83.0533 11.7253 82.952 11.6267 82.84 11.568C82.7333 11.5093 82.5733 11.48 82.36 11.48H81.44V16H79.288V4.432H82.816C83.6 4.432 84.272 4.51467 84.832 4.68C85.3973 4.84 85.8587 5.06667 86.216 5.36C86.5787 5.65333 86.8453 6.00533 87.016 6.416C87.1867 6.82133 87.272 7.26933 87.272 7.76C87.272 8.14933 87.2133 8.51733 87.096 8.864C86.984 9.21067 86.8187 9.52533 86.6 9.808C86.3867 10.0907 86.12 10.3387 85.8 10.552C85.4853 10.7653 85.1253 10.9333 84.72 11.056C84.8587 11.136 84.9867 11.232 85.104 11.344C85.2213 11.4507 85.328 11.5787 85.424 11.728L88.32 16ZM93.3293 6.144V9.352H97.3773V11.008H93.3293V14.28H98.4653V16H91.1693V4.432H98.4653V6.144H93.3293ZM111.258 10.2V14.88C110.672 15.312 110.045 15.6293 109.378 15.832C108.717 16.0293 108.008 16.128 107.25 16.128C106.306 16.128 105.45 15.9813 104.682 15.688C103.92 15.3947 103.266 14.9867 102.722 14.464C102.184 13.9413 101.768 13.3173 101.474 12.592C101.181 11.8667 101.034 11.0747 101.034 10.216C101.034 9.34667 101.176 8.54933 101.458 7.824C101.741 7.09867 102.141 6.47467 102.658 5.952C103.181 5.42933 103.813 5.024 104.554 4.736C105.296 4.448 106.128 4.304 107.05 4.304C107.52 4.304 107.957 4.34133 108.362 4.416C108.773 4.49067 109.152 4.59467 109.498 4.728C109.85 4.856 110.17 5.01333 110.458 5.2C110.746 5.38667 111.01 5.592 111.25 5.816L110.634 6.792C110.538 6.94667 110.413 7.04267 110.258 7.08C110.104 7.112 109.936 7.072 109.754 6.96C109.578 6.85867 109.402 6.75733 109.226 6.656C109.05 6.55467 108.853 6.46667 108.634 6.392C108.421 6.31733 108.178 6.256 107.906 6.208C107.64 6.16 107.33 6.136 106.978 6.136C106.408 6.136 105.89 6.232 105.426 6.424C104.968 6.616 104.576 6.89067 104.25 7.248C103.925 7.60533 103.674 8.03467 103.498 8.536C103.322 9.03733 103.234 9.59733 103.234 10.216C103.234 10.8773 103.328 11.4693 103.514 11.992C103.706 12.5093 103.973 12.9493 104.314 13.312C104.661 13.6693 105.077 13.944 105.562 14.136C106.048 14.3227 106.589 14.416 107.186 14.416C107.613 14.416 107.994 14.3707 108.33 14.28C108.666 14.1893 108.994 14.0667 109.314 13.912V11.816H107.858C107.72 11.816 107.61 11.7787 107.53 11.704C107.456 11.624 107.418 11.528 107.418 11.416V10.2H111.258ZM119.588 14.264C120.004 14.264 120.374 14.1947 120.7 14.056C121.03 13.9173 121.308 13.7227 121.532 13.472C121.756 13.2213 121.926 12.9173 122.044 12.56C122.166 12.2027 122.228 11.8027 122.228 11.36V4.432H124.38V11.36C124.38 12.048 124.268 12.6853 124.044 13.272C123.825 13.8533 123.508 14.3573 123.092 14.784C122.681 15.2053 122.18 15.536 121.588 15.776C120.996 16.0107 120.329 16.128 119.588 16.128C118.841 16.128 118.172 16.0107 117.58 15.776C116.988 15.536 116.484 15.2053 116.068 14.784C115.657 14.3573 115.34 13.8533 115.116 13.272C114.897 12.6853 114.788 12.048 114.788 11.36V4.432H116.94V11.352C116.94 11.7947 116.998 12.1947 117.116 12.552C117.238 12.9093 117.412 13.216 117.636 13.472C117.865 13.7227 118.142 13.9173 118.468 14.056C118.798 14.1947 119.172 14.264 119.588 14.264ZM135.183 14.224V16H128.407V4.432H130.559V14.224H135.183ZM144.431 11.632L143.023 7.784C142.954 7.61333 142.882 7.41067 142.807 7.176C142.733 6.94133 142.658 6.688 142.583 6.416C142.514 6.688 142.442 6.944 142.367 7.184C142.293 7.41867 142.221 7.624 142.151 7.8L140.751 11.632H144.431ZM148.231 16H146.567C146.381 16 146.229 15.9547 146.111 15.864C145.994 15.768 145.906 15.6507 145.847 15.512L144.983 13.152H140.191L139.327 15.512C139.285 15.6347 139.202 15.7467 139.079 15.848C138.957 15.9493 138.805 16 138.623 16H136.943L141.495 4.432H143.687L148.231 16ZM157.189 6.536C157.125 6.648 157.055 6.73067 156.981 6.784C156.911 6.832 156.823 6.856 156.717 6.856C156.605 6.856 156.482 6.816 156.349 6.736C156.221 6.65067 156.066 6.55733 155.885 6.456C155.703 6.35467 155.49 6.264 155.245 6.184C155.005 6.09867 154.719 6.056 154.389 6.056C154.09 6.056 153.829 6.09333 153.605 6.168C153.381 6.23733 153.191 6.336 153.037 6.464C152.887 6.592 152.775 6.74667 152.701 6.928C152.626 7.104 152.589 7.29867 152.589 7.512C152.589 7.784 152.663 8.01067 152.813 8.192C152.967 8.37333 153.17 8.528 153.421 8.656C153.671 8.784 153.957 8.89867 154.277 9C154.597 9.10133 154.925 9.21067 155.261 9.328C155.597 9.44 155.925 9.57333 156.245 9.728C156.565 9.87733 156.85 10.0693 157.101 10.304C157.351 10.5333 157.551 10.816 157.701 11.152C157.855 11.488 157.933 11.896 157.933 12.376C157.933 12.8987 157.842 13.3893 157.661 13.848C157.485 14.3013 157.223 14.6987 156.877 15.04C156.535 15.376 156.117 15.6427 155.621 15.84C155.125 16.032 154.557 16.128 153.917 16.128C153.549 16.128 153.186 16.0907 152.829 16.016C152.471 15.9467 152.127 15.8453 151.797 15.712C151.471 15.5787 151.165 15.4187 150.877 15.232C150.589 15.0453 150.333 14.8373 150.109 14.608L150.741 13.576C150.794 13.5013 150.863 13.44 150.949 13.392C151.034 13.3387 151.125 13.312 151.221 13.312C151.354 13.312 151.498 13.368 151.653 13.48C151.807 13.5867 151.991 13.7067 152.205 13.84C152.418 13.9733 152.666 14.096 152.949 14.208C153.237 14.3147 153.581 14.368 153.981 14.368C154.594 14.368 155.069 14.224 155.405 13.936C155.741 13.6427 155.909 13.224 155.909 12.68C155.909 12.376 155.831 12.128 155.677 11.936C155.527 11.744 155.327 11.584 155.077 11.456C154.826 11.3227 154.541 11.2107 154.221 11.12C153.901 11.0293 153.575 10.9307 153.245 10.824C152.914 10.7173 152.589 10.5893 152.269 10.44C151.949 10.2907 151.663 10.096 151.413 9.856C151.162 9.616 150.959 9.31733 150.805 8.96C150.655 8.59733 150.581 8.152 150.581 7.624C150.581 7.20267 150.663 6.792 150.829 6.392C150.999 5.992 151.245 5.63733 151.565 5.328C151.885 5.01867 152.279 4.77067 152.749 4.584C153.218 4.39733 153.757 4.304 154.365 4.304C155.047 4.304 155.677 4.41067 156.253 4.624C156.829 4.83733 157.319 5.136 157.725 5.52L157.189 6.536ZM163.57 16H161.41V4.432H163.57V16Z" fill="white"/>
<path d="M179 9.5H243" stroke="#4BC8F5"/>
</svg>
