<svg width="469" height="19" viewBox="0 0 469 19" fill="none" xmlns="http://www.w3.org/2000/svg">
<path d="M0.5 9.5H64.5" stroke="#4BC8F5"/>
<path opacity="0.8" d="M81.948 6.144V9.568H86.284V11.288H81.948V16H79.788V4.432H87.084V6.144H81.948ZM101.373 10.216C101.373 11.064 101.232 11.8507 100.949 12.576C100.672 13.296 100.277 13.92 99.7651 14.448C99.2531 14.976 98.6371 15.3893 97.9171 15.688C97.1971 15.9813 96.3971 16.128 95.5171 16.128C94.6425 16.128 93.8451 15.9813 93.1251 15.688C92.4051 15.3893 91.7865 14.976 91.2691 14.448C90.7571 13.92 90.3598 13.296 90.0771 12.576C89.7945 11.8507 89.6531 11.064 89.6531 10.216C89.6531 9.368 89.7945 8.584 90.0771 7.864C90.3598 7.13867 90.7571 6.512 91.2691 5.984C91.7865 5.456 92.4051 5.04533 93.1251 4.752C93.8451 4.45333 94.6425 4.304 95.5171 4.304C96.1038 4.304 96.6558 4.37333 97.1731 4.512C97.6905 4.64533 98.1651 4.83733 98.5971 5.088C99.0291 5.33333 99.4158 5.63467 99.7571 5.992C100.104 6.344 100.397 6.73867 100.637 7.176C100.877 7.61333 101.058 8.088 101.181 8.6C101.309 9.112 101.373 9.65067 101.373 10.216ZM99.1731 10.216C99.1731 9.58133 99.0878 9.01333 98.9171 8.512C98.7465 8.00533 98.5038 7.576 98.1891 7.224C97.8745 6.872 97.4905 6.60267 97.0371 6.416C96.5891 6.22933 96.0825 6.136 95.5171 6.136C94.9518 6.136 94.4425 6.22933 93.9891 6.416C93.5411 6.60267 93.1571 6.872 92.8371 7.224C92.5225 7.576 92.2798 8.00533 92.1091 8.512C91.9385 9.01333 91.8531 9.58133 91.8531 10.216C91.8531 10.8507 91.9385 11.4213 92.1091 11.928C92.2798 12.4293 92.5225 12.856 92.8371 13.208C93.1571 13.5547 93.5411 13.8213 93.9891 14.008C94.4425 14.1947 94.9518 14.288 95.5171 14.288C96.0825 14.288 96.5891 14.1947 97.0371 14.008C97.4905 13.8213 97.8745 13.5547 98.1891 13.208C98.5038 12.856 98.7465 12.4293 98.9171 11.928C99.0878 11.4213 99.1731 10.8507 99.1731 10.216ZM108.359 9.936C108.764 9.936 109.116 9.88533 109.415 9.784C109.719 9.68267 109.967 9.544 110.159 9.368C110.356 9.18667 110.503 8.97333 110.599 8.728C110.695 8.48267 110.743 8.21333 110.743 7.92C110.743 7.33333 110.548 6.88267 110.159 6.568C109.775 6.25333 109.186 6.096 108.391 6.096H107.015V9.936H108.359ZM113.895 16H111.951C111.583 16 111.316 15.856 111.151 15.568L108.719 11.864C108.628 11.7253 108.527 11.6267 108.415 11.568C108.308 11.5093 108.148 11.48 107.935 11.48H107.015V16H104.863V4.432H108.391C109.175 4.432 109.847 4.51467 110.407 4.68C110.972 4.84 111.434 5.06667 111.791 5.36C112.154 5.65333 112.42 6.00533 112.591 6.416C112.762 6.82133 112.847 7.26933 112.847 7.76C112.847 8.14933 112.788 8.51733 112.671 8.864C112.559 9.21067 112.394 9.52533 112.175 9.808C111.962 10.0907 111.695 10.3387 111.375 10.552C111.06 10.7653 110.7 10.9333 110.295 11.056C110.434 11.136 110.562 11.232 110.679 11.344C110.796 11.4507 110.903 11.5787 110.999 11.728L113.895 16ZM121.306 14.264C121.722 14.264 122.093 14.1947 122.418 14.056C122.749 13.9173 123.026 13.7227 123.25 13.472C123.474 13.2213 123.645 12.9173 123.762 12.56C123.885 12.2027 123.946 11.8027 123.946 11.36V4.432H126.098V11.36C126.098 12.048 125.986 12.6853 125.762 13.272C125.544 13.8533 125.226 14.3573 124.811 14.784C124.4 15.2053 123.898 15.536 123.306 15.776C122.714 16.0107 122.048 16.128 121.306 16.128C120.56 16.128 119.89 16.0107 119.298 15.776C118.706 15.536 118.202 15.2053 117.786 14.784C117.376 14.3573 117.058 13.8533 116.834 13.272C116.616 12.6853 116.506 12.048 116.506 11.36V4.432H118.658V11.352C118.658 11.7947 118.717 12.1947 118.834 12.552C118.957 12.9093 119.13 13.216 119.354 13.472C119.584 13.7227 119.861 13.9173 120.186 14.056C120.517 14.1947 120.89 14.264 121.306 14.264ZM142.67 4.432V16H140.774V8.528C140.774 8.22933 140.79 7.90667 140.822 7.56L137.326 14.128C137.16 14.4427 136.907 14.6 136.566 14.6H136.262C135.92 14.6 135.667 14.4427 135.502 14.128L131.966 7.536C131.982 7.712 131.995 7.88533 132.006 8.056C132.016 8.22667 132.022 8.384 132.022 8.528V16H130.126V4.432H131.75C131.846 4.432 131.928 4.43467 131.998 4.44C132.067 4.44533 132.128 4.45867 132.182 4.48C132.24 4.50133 132.291 4.536 132.334 4.584C132.382 4.632 132.427 4.696 132.47 4.776L135.934 11.2C136.024 11.3707 136.107 11.5467 136.182 11.728C136.262 11.9093 136.339 12.096 136.414 12.288C136.488 12.0907 136.566 11.9013 136.646 11.72C136.726 11.5333 136.811 11.3547 136.902 11.184L140.318 4.776C140.36 4.696 140.406 4.632 140.454 4.584C140.502 4.536 140.552 4.50133 140.606 4.48C140.664 4.45867 140.728 4.44533 140.798 4.44C140.867 4.43467 140.95 4.432 141.046 4.432H142.67ZM160.285 13.272C160.402 13.272 160.506 13.3173 160.597 13.408L161.445 14.328C160.976 14.9093 160.397 15.3547 159.709 15.664C159.026 15.9733 158.205 16.128 157.245 16.128C156.386 16.128 155.613 15.9813 154.925 15.688C154.242 15.3947 153.658 14.9867 153.173 14.464C152.688 13.9413 152.314 13.3173 152.053 12.592C151.797 11.8667 151.669 11.0747 151.669 10.216C151.669 9.34667 151.808 8.552 152.085 7.832C152.362 7.10667 152.752 6.48267 153.253 5.96C153.76 5.43733 154.362 5.032 155.061 4.744C155.76 4.45067 156.533 4.304 157.381 4.304C158.224 4.304 158.97 4.44267 159.621 4.72C160.277 4.99733 160.834 5.36 161.293 5.808L160.573 6.808C160.53 6.872 160.474 6.928 160.405 6.976C160.341 7.024 160.25 7.048 160.133 7.048C160.053 7.048 159.97 7.02667 159.885 6.984C159.8 6.936 159.706 6.88 159.605 6.816C159.504 6.74667 159.386 6.672 159.253 6.592C159.12 6.512 158.965 6.44 158.789 6.376C158.613 6.30667 158.408 6.25067 158.173 6.208C157.944 6.16 157.677 6.136 157.373 6.136C156.856 6.136 156.381 6.22933 155.949 6.416C155.522 6.59733 155.154 6.864 154.845 7.216C154.536 7.56267 154.296 7.98933 154.125 8.496C153.954 8.99733 153.869 9.57067 153.869 10.216C153.869 10.8667 153.96 11.4453 154.141 11.952C154.328 12.4587 154.578 12.8853 154.893 13.232C155.208 13.5787 155.578 13.8453 156.005 14.032C156.432 14.2133 156.89 14.304 157.381 14.304C157.674 14.304 157.938 14.288 158.173 14.256C158.413 14.224 158.632 14.1733 158.829 14.104C159.032 14.0347 159.221 13.9467 159.397 13.84C159.578 13.728 159.757 13.592 159.933 13.432C159.986 13.384 160.042 13.3467 160.101 13.32C160.16 13.288 160.221 13.272 160.285 13.272ZM175.301 10.216C175.301 11.064 175.16 11.8507 174.877 12.576C174.6 13.296 174.205 13.92 173.693 14.448C173.181 14.976 172.565 15.3893 171.845 15.688C171.125 15.9813 170.325 16.128 169.445 16.128C168.571 16.128 167.773 15.9813 167.053 15.688C166.333 15.3893 165.715 14.976 165.197 14.448C164.685 13.92 164.288 13.296 164.005 12.576C163.723 11.8507 163.581 11.064 163.581 10.216C163.581 9.368 163.723 8.584 164.005 7.864C164.288 7.13867 164.685 6.512 165.197 5.984C165.715 5.456 166.333 5.04533 167.053 4.752C167.773 4.45333 168.571 4.304 169.445 4.304C170.032 4.304 170.584 4.37333 171.101 4.512C171.619 4.64533 172.093 4.83733 172.525 5.088C172.957 5.33333 173.344 5.63467 173.685 5.992C174.032 6.344 174.325 6.73867 174.565 7.176C174.805 7.61333 174.987 8.088 175.109 8.6C175.237 9.112 175.301 9.65067 175.301 10.216ZM173.101 10.216C173.101 9.58133 173.016 9.01333 172.845 8.512C172.675 8.00533 172.432 7.576 172.117 7.224C171.803 6.872 171.419 6.60267 170.965 6.416C170.517 6.22933 170.011 6.136 169.445 6.136C168.88 6.136 168.371 6.22933 167.917 6.416C167.469 6.60267 167.085 6.872 166.765 7.224C166.451 7.576 166.208 8.00533 166.037 8.512C165.867 9.01333 165.781 9.58133 165.781 10.216C165.781 10.8507 165.867 11.4213 166.037 11.928C166.208 12.4293 166.451 12.856 166.765 13.208C167.085 13.5547 167.469 13.8213 167.917 14.008C168.371 14.1947 168.88 14.288 169.445 14.288C170.011 14.288 170.517 14.1947 170.965 14.008C171.419 13.8213 171.803 13.5547 172.117 13.208C172.432 12.856 172.675 12.4293 172.845 11.928C173.016 11.4213 173.101 10.8507 173.101 10.216ZM191.335 4.432V16H189.439V8.528C189.439 8.22933 189.455 7.90667 189.487 7.56L185.991 14.128C185.826 14.4427 185.572 14.6 185.231 14.6H184.927C184.586 14.6 184.332 14.4427 184.167 14.128L180.631 7.536C180.647 7.712 180.66 7.88533 180.671 8.056C180.682 8.22667 180.687 8.384 180.687 8.528V16H178.791V4.432H180.415C180.511 4.432 180.594 4.43467 180.663 4.44C180.732 4.44533 180.794 4.45867 180.847 4.48C180.906 4.50133 180.956 4.536 180.999 4.584C181.047 4.632 181.092 4.696 181.135 4.776L184.599 11.2C184.69 11.3707 184.772 11.5467 184.847 11.728C184.927 11.9093 185.004 12.096 185.079 12.288C185.154 12.0907 185.231 11.9013 185.311 11.72C185.391 11.5333 185.476 11.3547 185.567 11.184L188.983 4.776C189.026 4.696 189.071 4.632 189.119 4.584C189.167 4.536 189.218 4.50133 189.271 4.48C189.33 4.45867 189.394 4.44533 189.463 4.44C189.532 4.43467 189.615 4.432 189.711 4.432H191.335ZM208.06 4.432V16H206.164V8.528C206.164 8.22933 206.18 7.90667 206.212 7.56L202.716 14.128C202.551 14.4427 202.297 14.6 201.956 14.6H201.652C201.311 14.6 201.057 14.4427 200.892 14.128L197.356 7.536C197.372 7.712 197.385 7.88533 197.396 8.056C197.407 8.22667 197.412 8.384 197.412 8.528V16H195.516V4.432H197.14C197.236 4.432 197.319 4.43467 197.388 4.44C197.457 4.44533 197.519 4.45867 197.572 4.48C197.631 4.50133 197.681 4.536 197.724 4.584C197.772 4.632 197.817 4.696 197.86 4.776L201.324 11.2C201.415 11.3707 201.497 11.5467 201.572 11.728C201.652 11.9093 201.729 12.096 201.804 12.288C201.879 12.0907 201.956 11.9013 202.036 11.72C202.116 11.5333 202.201 11.3547 202.292 11.184L205.708 4.776C205.751 4.696 205.796 4.632 205.844 4.584C205.892 4.536 205.943 4.50133 205.996 4.48C206.055 4.45867 206.119 4.44533 206.188 4.44C206.257 4.43467 206.34 4.432 206.436 4.432H208.06ZM216.897 14.264C217.313 14.264 217.684 14.1947 218.009 14.056C218.34 13.9173 218.617 13.7227 218.841 13.472C219.065 13.2213 219.236 12.9173 219.353 12.56C219.476 12.2027 219.537 11.8027 219.537 11.36V4.432H221.689V11.36C221.689 12.048 221.577 12.6853 221.353 13.272C221.134 13.8533 220.817 14.3573 220.401 14.784C219.99 15.2053 219.489 15.536 218.897 15.776C218.305 16.0107 217.638 16.128 216.897 16.128C216.15 16.128 215.481 16.0107 214.889 15.776C214.297 15.536 213.793 15.2053 213.377 14.784C212.966 14.3573 212.649 13.8533 212.425 13.272C212.206 12.6853 212.097 12.048 212.097 11.36V4.432H214.249V11.352C214.249 11.7947 214.308 12.1947 214.425 12.552C214.548 12.9093 214.721 13.216 214.945 13.472C215.174 13.7227 215.452 13.9173 215.777 14.056C216.108 14.1947 216.481 14.264 216.897 14.264ZM235.468 4.432V16H234.364C234.193 16 234.049 15.9733 233.932 15.92C233.82 15.8613 233.711 15.7653 233.604 15.632L227.564 7.92C227.596 8.272 227.612 8.59733 227.612 8.896V16H225.716V4.432H226.844C226.935 4.432 227.012 4.43733 227.076 4.448C227.145 4.45333 227.204 4.46933 227.252 4.496C227.305 4.51733 227.356 4.552 227.404 4.6C227.452 4.64267 227.505 4.70133 227.564 4.776L233.628 12.52C233.612 12.3333 233.599 12.1493 233.588 11.968C233.577 11.7867 233.572 11.6187 233.572 11.464V4.432H235.468ZM241.804 16H239.644V4.432H241.804V16ZM254.074 6.2H250.586V16H248.434V6.2H244.946V4.432H254.074V6.2ZM262.156 11.52V16H260.012V11.52L255.796 4.432H257.692C257.879 4.432 258.025 4.47733 258.132 4.568C258.244 4.65867 258.337 4.77333 258.412 4.912L260.524 8.776C260.647 9.00533 260.753 9.22133 260.844 9.424C260.94 9.62667 261.025 9.82933 261.1 10.032C261.169 9.82933 261.249 9.62667 261.34 9.424C261.431 9.22133 261.535 9.00533 261.652 8.776L263.756 4.912C263.815 4.79467 263.903 4.68533 264.02 4.584C264.137 4.48267 264.287 4.432 264.468 4.432H266.372L262.156 11.52ZM285.029 10.216C285.029 11.064 284.888 11.8507 284.605 12.576C284.328 13.296 283.933 13.92 283.421 14.448C282.909 14.976 282.293 15.3893 281.573 15.688C280.853 15.9813 280.053 16.128 279.173 16.128C278.299 16.128 277.501 15.9813 276.781 15.688C276.061 15.3893 275.443 14.976 274.925 14.448C274.413 13.92 274.016 13.296 273.733 12.576C273.451 11.8507 273.309 11.064 273.309 10.216C273.309 9.368 273.451 8.584 273.733 7.864C274.016 7.13867 274.413 6.512 274.925 5.984C275.443 5.456 276.061 5.04533 276.781 4.752C277.501 4.45333 278.299 4.304 279.173 4.304C279.76 4.304 280.312 4.37333 280.829 4.512C281.347 4.64533 281.821 4.83733 282.253 5.088C282.685 5.33333 283.072 5.63467 283.413 5.992C283.76 6.344 284.053 6.73867 284.293 7.176C284.533 7.61333 284.715 8.088 284.837 8.6C284.965 9.112 285.029 9.65067 285.029 10.216ZM282.829 10.216C282.829 9.58133 282.744 9.01333 282.573 8.512C282.403 8.00533 282.16 7.576 281.845 7.224C281.531 6.872 281.147 6.60267 280.693 6.416C280.245 6.22933 279.739 6.136 279.173 6.136C278.608 6.136 278.099 6.22933 277.645 6.416C277.197 6.60267 276.813 6.872 276.493 7.224C276.179 7.576 275.936 8.00533 275.765 8.512C275.595 9.01333 275.509 9.58133 275.509 10.216C275.509 10.8507 275.595 11.4213 275.765 11.928C275.936 12.4293 276.179 12.856 276.493 13.208C276.813 13.5547 277.197 13.8213 277.645 14.008C278.099 14.1947 278.608 14.288 279.173 14.288C279.739 14.288 280.245 14.1947 280.693 14.008C281.147 13.8213 281.531 13.5547 281.845 13.208C282.16 12.856 282.403 12.4293 282.573 11.928C282.744 11.4213 282.829 10.8507 282.829 10.216ZM290.679 6.144V9.568H295.015V11.288H290.679V16H288.519V4.432H295.815V6.144H290.679ZM308.042 10.248C308.436 10.248 308.78 10.2 309.074 10.104C309.367 10.0027 309.61 9.86133 309.802 9.68C309.999 9.49333 310.146 9.26933 310.242 9.008C310.338 8.74133 310.386 8.44533 310.386 8.12C310.386 7.81067 310.338 7.53067 310.242 7.28C310.146 7.02933 310.002 6.816 309.81 6.64C309.618 6.464 309.375 6.33067 309.082 6.24C308.788 6.144 308.442 6.096 308.042 6.096H306.434V10.248H308.042ZM308.042 4.432C308.815 4.432 309.484 4.52267 310.05 4.704C310.615 4.88533 311.082 5.13867 311.45 5.464C311.818 5.78933 312.09 6.17867 312.266 6.632C312.447 7.08533 312.538 7.58133 312.538 8.12C312.538 8.68 312.444 9.19467 312.258 9.664C312.071 10.128 311.791 10.528 311.418 10.864C311.044 11.2 310.575 11.4613 310.01 11.648C309.45 11.8347 308.794 11.928 308.042 11.928H306.434V16H304.282V4.432H308.042ZM319.284 9.936C319.689 9.936 320.041 9.88533 320.34 9.784C320.644 9.68267 320.892 9.544 321.084 9.368C321.281 9.18667 321.428 8.97333 321.524 8.728C321.62 8.48267 321.668 8.21333 321.668 7.92C321.668 7.33333 321.473 6.88267 321.084 6.568C320.7 6.25333 320.111 6.096 319.316 6.096H317.94V9.936H319.284ZM324.82 16H322.876C322.508 16 322.241 15.856 322.076 15.568L319.644 11.864C319.553 11.7253 319.452 11.6267 319.34 11.568C319.233 11.5093 319.073 11.48 318.86 11.48H317.94V16H315.788V4.432H319.316C320.1 4.432 320.772 4.51467 321.332 4.68C321.897 4.84 322.359 5.06667 322.716 5.36C323.079 5.65333 323.345 6.00533 323.516 6.416C323.687 6.82133 323.772 7.26933 323.772 7.76C323.772 8.14933 323.713 8.51733 323.596 8.864C323.484 9.21067 323.319 9.52533 323.1 9.808C322.887 10.0907 322.62 10.3387 322.3 10.552C321.985 10.7653 321.625 10.9333 321.22 11.056C321.359 11.136 321.487 11.232 321.604 11.344C321.721 11.4507 321.828 11.5787 321.924 11.728L324.82 16ZM333.781 11.632L332.373 7.784C332.304 7.61333 332.232 7.41067 332.157 7.176C332.083 6.94133 332.008 6.688 331.933 6.416C331.864 6.688 331.792 6.944 331.717 7.184C331.643 7.41867 331.571 7.624 331.501 7.8L330.101 11.632H333.781ZM337.581 16H335.917C335.731 16 335.579 15.9547 335.461 15.864C335.344 15.768 335.256 15.6507 335.197 15.512L334.333 13.152H329.541L328.677 15.512C328.635 15.6347 328.552 15.7467 328.429 15.848C328.307 15.9493 328.155 16 327.973 16H326.293L330.845 4.432H333.037L337.581 16ZM347.979 13.272C348.096 13.272 348.2 13.3173 348.291 13.408L349.139 14.328C348.67 14.9093 348.091 15.3547 347.403 15.664C346.72 15.9733 345.899 16.128 344.939 16.128C344.08 16.128 343.307 15.9813 342.619 15.688C341.936 15.3947 341.352 14.9867 340.867 14.464C340.382 13.9413 340.008 13.3173 339.747 12.592C339.491 11.8667 339.363 11.0747 339.363 10.216C339.363 9.34667 339.502 8.552 339.779 7.832C340.056 7.10667 340.446 6.48267 340.947 5.96C341.454 5.43733 342.056 5.032 342.755 4.744C343.454 4.45067 344.227 4.304 345.075 4.304C345.918 4.304 346.664 4.44267 347.315 4.72C347.971 4.99733 348.528 5.36 348.987 5.808L348.267 6.808C348.224 6.872 348.168 6.928 348.099 6.976C348.035 7.024 347.944 7.048 347.827 7.048C347.747 7.048 347.664 7.02667 347.579 6.984C347.494 6.936 347.4 6.88 347.299 6.816C347.198 6.74667 347.08 6.672 346.947 6.592C346.814 6.512 346.659 6.44 346.483 6.376C346.307 6.30667 346.102 6.25067 345.867 6.208C345.638 6.16 345.371 6.136 345.067 6.136C344.55 6.136 344.075 6.22933 343.643 6.416C343.216 6.59733 342.848 6.864 342.539 7.216C342.23 7.56267 341.99 7.98933 341.819 8.496C341.648 8.99733 341.563 9.57067 341.563 10.216C341.563 10.8667 341.654 11.4453 341.835 11.952C342.022 12.4587 342.272 12.8853 342.587 13.232C342.902 13.5787 343.272 13.8453 343.699 14.032C344.126 14.2133 344.584 14.304 345.075 14.304C345.368 14.304 345.632 14.288 345.867 14.256C346.107 14.224 346.326 14.1733 346.523 14.104C346.726 14.0347 346.915 13.9467 347.091 13.84C347.272 13.728 347.451 13.592 347.627 13.432C347.68 13.384 347.736 13.3467 347.795 13.32C347.854 13.288 347.915 13.272 347.979 13.272ZM360.293 6.2H356.805V16H354.653V6.2H351.165V4.432H360.293V6.2ZM365.567 16H363.407V4.432H365.567V16ZM377.701 13.272C377.818 13.272 377.922 13.3173 378.013 13.408L378.861 14.328C378.391 14.9093 377.813 15.3547 377.125 15.664C376.442 15.9733 375.621 16.128 374.661 16.128C373.802 16.128 373.029 15.9813 372.341 15.688C371.658 15.3947 371.074 14.9867 370.589 14.464C370.103 13.9413 369.73 13.3173 369.469 12.592C369.213 11.8667 369.085 11.0747 369.085 10.216C369.085 9.34667 369.223 8.552 369.501 7.832C369.778 7.10667 370.167 6.48267 370.669 5.96C371.175 5.43733 371.778 5.032 372.477 4.744C373.175 4.45067 373.949 4.304 374.797 4.304C375.639 4.304 376.386 4.44267 377.037 4.72C377.693 4.99733 378.25 5.36 378.709 5.808L377.989 6.808C377.946 6.872 377.89 6.928 377.821 6.976C377.757 7.024 377.666 7.048 377.549 7.048C377.469 7.048 377.386 7.02667 377.301 6.984C377.215 6.936 377.122 6.88 377.021 6.816C376.919 6.74667 376.802 6.672 376.669 6.592C376.535 6.512 376.381 6.44 376.205 6.376C376.029 6.30667 375.823 6.25067 375.589 6.208C375.359 6.16 375.093 6.136 374.789 6.136C374.271 6.136 373.797 6.22933 373.365 6.416C372.938 6.59733 372.57 6.864 372.261 7.216C371.951 7.56267 371.711 7.98933 371.541 8.496C371.37 8.99733 371.285 9.57067 371.285 10.216C371.285 10.8667 371.375 11.4453 371.557 11.952C371.743 12.4587 371.994 12.8853 372.309 13.232C372.623 13.5787 372.994 13.8453 373.421 14.032C373.847 14.2133 374.306 14.304 374.797 14.304C375.09 14.304 375.354 14.288 375.589 14.256C375.829 14.224 376.047 14.1733 376.245 14.104C376.447 14.0347 376.637 13.9467 376.813 13.84C376.994 13.728 377.173 13.592 377.349 13.432C377.402 13.384 377.458 13.3467 377.517 13.32C377.575 13.288 377.637 13.272 377.701 13.272ZM384.095 6.144V9.352H388.143V11.008H384.095V14.28H389.231V16H381.935V4.432H389.231V6.144H384.095Z" fill="white"/>
<path d="M404.5 9.5H468.5" stroke="#4BC8F5"/>
</svg>
