<svg width="304" height="19" viewBox="0 0 304 19" fill="none" xmlns="http://www.w3.org/2000/svg">
<path d="M0 9.5H64" stroke="#4BC8F5"/>
<path opacity="0.8" d="M89.9678 10.216C89.9678 11.064 89.8265 11.8427 89.5438 12.552C89.2611 13.2613 88.8638 13.872 88.3518 14.384C87.8398 14.896 87.2238 15.2933 86.5038 15.576C85.7838 15.8587 84.9838 16 84.1038 16H79.6958V4.432H84.1038C84.9838 4.432 85.7838 4.576 86.5038 4.864C87.2238 5.14667 87.8398 5.544 88.3518 6.056C88.8638 6.56267 89.2611 7.17067 89.5438 7.88C89.8265 8.58933 89.9678 9.368 89.9678 10.216ZM87.7598 10.216C87.7598 9.58133 87.6745 9.01333 87.5038 8.512C87.3385 8.00533 87.0958 7.57867 86.7758 7.232C86.4611 6.88 86.0771 6.61067 85.6238 6.424C85.1758 6.23733 84.6691 6.144 84.1038 6.144H81.8558V14.288H84.1038C84.6691 14.288 85.1758 14.1947 85.6238 14.008C86.0771 13.8213 86.4611 13.5547 86.7758 13.208C87.0958 12.856 87.3385 12.4293 87.5038 11.928C87.6745 11.4213 87.7598 10.8507 87.7598 10.216ZM104.5 10.216C104.5 11.064 104.358 11.8507 104.076 12.576C103.798 13.296 103.404 13.92 102.892 14.448C102.38 14.976 101.764 15.3893 101.044 15.688C100.324 15.9813 99.5237 16.128 98.6437 16.128C97.769 16.128 96.9717 15.9813 96.2517 15.688C95.5317 15.3893 94.913 14.976 94.3957 14.448C93.8837 13.92 93.4864 13.296 93.2037 12.576C92.921 11.8507 92.7797 11.064 92.7797 10.216C92.7797 9.368 92.921 8.584 93.2037 7.864C93.4864 7.13867 93.8837 6.512 94.3957 5.984C94.913 5.456 95.5317 5.04533 96.2517 4.752C96.9717 4.45333 97.769 4.304 98.6437 4.304C99.2304 4.304 99.7824 4.37333 100.3 4.512C100.817 4.64533 101.292 4.83733 101.724 5.088C102.156 5.33333 102.542 5.63467 102.884 5.992C103.23 6.344 103.524 6.73867 103.764 7.176C104.004 7.61333 104.185 8.088 104.308 8.6C104.436 9.112 104.5 9.65067 104.5 10.216ZM102.3 10.216C102.3 9.58133 102.214 9.01333 102.044 8.512C101.873 8.00533 101.63 7.576 101.316 7.224C101.001 6.872 100.617 6.60267 100.164 6.416C99.7157 6.22933 99.209 6.136 98.6437 6.136C98.0784 6.136 97.569 6.22933 97.1157 6.416C96.6677 6.60267 96.2837 6.872 95.9637 7.224C95.649 7.576 95.4064 8.00533 95.2357 8.512C95.065 9.01333 94.9797 9.58133 94.9797 10.216C94.9797 10.8507 95.065 11.4213 95.2357 11.928C95.4064 12.4293 95.649 12.856 95.9637 13.208C96.2837 13.5547 96.6677 13.8213 97.1157 14.008C97.569 14.1947 98.0784 14.288 98.6437 14.288C99.209 14.288 99.7157 14.1947 100.164 14.008C100.617 13.8213 101.001 13.5547 101.316 13.208C101.63 12.856 101.873 12.4293 102.044 11.928C102.214 11.4213 102.3 10.8507 102.3 10.216ZM110.142 9.28H110.646C110.848 9.28 111.016 9.25333 111.15 9.2C111.283 9.14133 111.398 9.05067 111.494 8.928L114.686 4.888C114.819 4.71733 114.958 4.6 115.102 4.536C115.251 4.46667 115.438 4.432 115.662 4.432H117.518L113.622 9.24C113.392 9.53333 113.155 9.74133 112.91 9.864C113.086 9.928 113.243 10.0187 113.382 10.136C113.526 10.248 113.662 10.3973 113.79 10.584L117.806 16H115.91C115.654 16 115.462 15.9653 115.334 15.896C115.211 15.8213 115.107 15.7147 115.022 15.576L111.75 11.304C111.648 11.16 111.531 11.0587 111.398 11C111.264 10.9413 111.072 10.912 110.822 10.912H110.142V16H107.99V4.432H110.142V9.28ZM125.214 14.264C125.63 14.264 126.001 14.1947 126.326 14.056C126.657 13.9173 126.934 13.7227 127.158 13.472C127.382 13.2213 127.553 12.9173 127.67 12.56C127.793 12.2027 127.854 11.8027 127.854 11.36V4.432H130.006V11.36C130.006 12.048 129.894 12.6853 129.67 13.272C129.452 13.8533 129.134 14.3573 128.718 14.784C128.308 15.2053 127.806 15.536 127.214 15.776C126.622 16.0107 125.956 16.128 125.214 16.128C124.468 16.128 123.798 16.0107 123.206 15.776C122.614 15.536 122.11 15.2053 121.694 14.784C121.284 14.3573 120.966 13.8533 120.742 13.272C120.524 12.6853 120.414 12.048 120.414 11.36V4.432H122.566V11.352C122.566 11.7947 122.625 12.1947 122.742 12.552C122.865 12.9093 123.038 13.216 123.262 13.472C123.492 13.7227 123.769 13.9173 124.094 14.056C124.425 14.1947 124.798 14.264 125.214 14.264ZM146.577 4.432V16H144.681V8.528C144.681 8.22933 144.697 7.90667 144.729 7.56L141.233 14.128C141.068 14.4427 140.815 14.6 140.473 14.6H140.169C139.828 14.6 139.575 14.4427 139.409 14.128L135.873 7.536C135.889 7.712 135.903 7.88533 135.913 8.056C135.924 8.22667 135.929 8.384 135.929 8.528V16H134.033V4.432H135.657C135.753 4.432 135.836 4.43467 135.905 4.44C135.975 4.44533 136.036 4.45867 136.089 4.48C136.148 4.50133 136.199 4.536 136.241 4.584C136.289 4.632 136.335 4.696 136.377 4.776L139.841 11.2C139.932 11.3707 140.015 11.5467 140.089 11.728C140.169 11.9093 140.247 12.096 140.321 12.288C140.396 12.0907 140.473 11.9013 140.553 11.72C140.633 11.5333 140.719 11.3547 140.809 11.184L144.225 4.776C144.268 4.696 144.313 4.632 144.361 4.584C144.409 4.536 144.46 4.50133 144.513 4.48C144.572 4.45867 144.636 4.44533 144.705 4.44C144.775 4.43467 144.857 4.432 144.953 4.432H146.577ZM152.918 6.144V9.352H156.966V11.008H152.918V14.28H158.054V16H150.758V4.432H158.054V6.144H152.918ZM171.313 4.432V16H170.209C170.039 16 169.895 15.9733 169.777 15.92C169.665 15.8613 169.556 15.7653 169.449 15.632L163.409 7.92C163.441 8.272 163.457 8.59733 163.457 8.896V16H161.561V4.432H162.689C162.78 4.432 162.857 4.43733 162.921 4.448C162.991 4.45333 163.049 4.46933 163.097 4.496C163.151 4.51733 163.201 4.552 163.249 4.6C163.297 4.64267 163.351 4.70133 163.409 4.776L169.473 12.52C169.457 12.3333 169.444 12.1493 169.433 11.968C169.423 11.7867 169.417 11.6187 169.417 11.464V4.432H171.313ZM187.14 6.536C187.076 6.648 187.007 6.73067 186.932 6.784C186.863 6.832 186.775 6.856 186.668 6.856C186.556 6.856 186.434 6.816 186.3 6.736C186.172 6.65067 186.018 6.55733 185.836 6.456C185.655 6.35467 185.442 6.264 185.196 6.184C184.956 6.09867 184.671 6.056 184.34 6.056C184.042 6.056 183.78 6.09333 183.556 6.168C183.332 6.23733 183.143 6.336 182.988 6.464C182.839 6.592 182.727 6.74667 182.652 6.928C182.578 7.104 182.54 7.29867 182.54 7.512C182.54 7.784 182.615 8.01067 182.764 8.192C182.919 8.37333 183.122 8.528 183.372 8.656C183.623 8.784 183.908 8.89867 184.228 9C184.548 9.10133 184.876 9.21067 185.212 9.328C185.548 9.44 185.876 9.57333 186.196 9.728C186.516 9.87733 186.802 10.0693 187.052 10.304C187.303 10.5333 187.503 10.816 187.652 11.152C187.807 11.488 187.884 11.896 187.884 12.376C187.884 12.8987 187.794 13.3893 187.612 13.848C187.436 14.3013 187.175 14.6987 186.828 15.04C186.487 15.376 186.068 15.6427 185.572 15.84C185.076 16.032 184.508 16.128 183.868 16.128C183.5 16.128 183.138 16.0907 182.78 16.016C182.423 15.9467 182.079 15.8453 181.748 15.712C181.423 15.5787 181.116 15.4187 180.828 15.232C180.54 15.0453 180.284 14.8373 180.06 14.608L180.692 13.576C180.746 13.5013 180.815 13.44 180.9 13.392C180.986 13.3387 181.076 13.312 181.172 13.312C181.306 13.312 181.45 13.368 181.604 13.48C181.759 13.5867 181.943 13.7067 182.156 13.84C182.37 13.9733 182.618 14.096 182.9 14.208C183.188 14.3147 183.532 14.368 183.932 14.368C184.546 14.368 185.02 14.224 185.356 13.936C185.692 13.6427 185.86 13.224 185.86 12.68C185.86 12.376 185.783 12.128 185.628 11.936C185.479 11.744 185.279 11.584 185.028 11.456C184.778 11.3227 184.492 11.2107 184.172 11.12C183.852 11.0293 183.527 10.9307 183.196 10.824C182.866 10.7173 182.54 10.5893 182.22 10.44C181.9 10.2907 181.615 10.096 181.364 9.856C181.114 9.616 180.911 9.31733 180.756 8.96C180.607 8.59733 180.532 8.152 180.532 7.624C180.532 7.20267 180.615 6.792 180.78 6.392C180.951 5.992 181.196 5.63733 181.516 5.328C181.836 5.01867 182.231 4.77067 182.7 4.584C183.17 4.39733 183.708 4.304 184.316 4.304C184.999 4.304 185.628 4.41067 186.204 4.624C186.78 4.83733 187.271 5.136 187.676 5.52L187.14 6.536ZM201.633 10.216C201.633 11.064 201.492 11.8427 201.209 12.552C200.927 13.2613 200.529 13.872 200.017 14.384C199.505 14.896 198.889 15.2933 198.169 15.576C197.449 15.8587 196.649 16 195.769 16H191.361V4.432H195.769C196.649 4.432 197.449 4.576 198.169 4.864C198.889 5.14667 199.505 5.544 200.017 6.056C200.529 6.56267 200.927 7.17067 201.209 7.88C201.492 8.58933 201.633 9.368 201.633 10.216ZM199.425 10.216C199.425 9.58133 199.34 9.01333 199.169 8.512C199.004 8.00533 198.761 7.57867 198.441 7.232C198.127 6.88 197.743 6.61067 197.289 6.424C196.841 6.23733 196.335 6.144 195.769 6.144H193.521V14.288H195.769C196.335 14.288 196.841 14.1947 197.289 14.008C197.743 13.8213 198.127 13.5547 198.441 13.208C198.761 12.856 199.004 12.4293 199.169 11.928C199.34 11.4213 199.425 10.8507 199.425 10.216ZM214.669 10.2V14.88C214.083 15.312 213.456 15.6293 212.789 15.832C212.128 16.0293 211.419 16.128 210.661 16.128C209.717 16.128 208.861 15.9813 208.093 15.688C207.331 15.3947 206.677 14.9867 206.133 14.464C205.595 13.9413 205.179 13.3173 204.885 12.592C204.592 11.8667 204.445 11.0747 204.445 10.216C204.445 9.34667 204.587 8.54933 204.869 7.824C205.152 7.09867 205.552 6.47467 206.069 5.952C206.592 5.42933 207.224 5.024 207.965 4.736C208.707 4.448 209.539 4.304 210.461 4.304C210.931 4.304 211.368 4.34133 211.773 4.416C212.184 4.49067 212.563 4.59467 212.909 4.728C213.261 4.856 213.581 5.01333 213.869 5.2C214.157 5.38667 214.421 5.592 214.661 5.816L214.045 6.792C213.949 6.94667 213.824 7.04267 213.669 7.08C213.515 7.112 213.347 7.072 213.165 6.96C212.989 6.85867 212.813 6.75733 212.637 6.656C212.461 6.55467 212.264 6.46667 212.045 6.392C211.832 6.31733 211.589 6.256 211.317 6.208C211.051 6.16 210.741 6.136 210.389 6.136C209.819 6.136 209.301 6.232 208.837 6.424C208.379 6.616 207.987 6.89067 207.661 7.248C207.336 7.60533 207.085 8.03467 206.909 8.536C206.733 9.03733 206.645 9.59733 206.645 10.216C206.645 10.8773 206.739 11.4693 206.925 11.992C207.117 12.5093 207.384 12.9493 207.725 13.312C208.072 13.6693 208.488 13.944 208.973 14.136C209.459 14.3227 210 14.416 210.597 14.416C211.024 14.416 211.405 14.3707 211.741 14.28C212.077 14.1893 212.405 14.0667 212.725 13.912V11.816H211.269C211.131 11.816 211.021 11.7787 210.941 11.704C210.867 11.624 210.829 11.528 210.829 11.416V10.2H214.669ZM222.945 9.392C222.892 9.47733 222.836 9.53867 222.777 9.576C222.718 9.608 222.644 9.624 222.553 9.624C222.457 9.624 222.353 9.59733 222.241 9.544C222.134 9.49067 222.009 9.432 221.865 9.368C221.721 9.29867 221.556 9.23733 221.369 9.184C221.188 9.13067 220.972 9.104 220.721 9.104C220.332 9.104 220.025 9.18667 219.801 9.352C219.582 9.51733 219.473 9.73333 219.473 10C219.473 10.176 219.529 10.3253 219.641 10.448C219.758 10.5653 219.91 10.6693 220.097 10.76C220.289 10.8507 220.505 10.9333 220.745 11.008C220.985 11.0773 221.228 11.1547 221.473 11.24C221.724 11.3253 221.969 11.424 222.209 11.536C222.449 11.6427 222.662 11.7813 222.849 11.952C223.041 12.1173 223.193 12.3173 223.305 12.552C223.422 12.7867 223.481 13.0693 223.481 13.4C223.481 13.7947 223.409 14.16 223.265 14.496C223.126 14.8267 222.918 15.1147 222.641 15.36C222.364 15.6 222.02 15.7893 221.609 15.928C221.204 16.0613 220.734 16.128 220.201 16.128C219.918 16.128 219.641 16.1013 219.369 16.048C219.102 16 218.844 15.9307 218.593 15.84C218.348 15.7493 218.118 15.6427 217.905 15.52C217.697 15.3973 217.513 15.264 217.353 15.12L217.809 14.368C217.868 14.2773 217.937 14.208 218.017 14.16C218.097 14.112 218.198 14.088 218.321 14.088C218.444 14.088 218.558 14.1227 218.665 14.192C218.777 14.2613 218.905 14.336 219.049 14.416C219.193 14.496 219.361 14.5707 219.553 14.64C219.75 14.7093 219.998 14.744 220.297 14.744C220.532 14.744 220.732 14.7173 220.897 14.664C221.068 14.6053 221.206 14.5307 221.313 14.44C221.425 14.3493 221.505 14.2453 221.553 14.128C221.606 14.0053 221.633 13.88 221.633 13.752C221.633 13.56 221.574 13.4027 221.457 13.28C221.345 13.1573 221.193 13.0507 221.001 12.96C220.814 12.8693 220.598 12.7893 220.353 12.72C220.113 12.6453 219.865 12.5653 219.609 12.48C219.358 12.3947 219.11 12.296 218.865 12.184C218.625 12.0667 218.409 11.92 218.217 11.744C218.03 11.568 217.878 11.352 217.761 11.096C217.649 10.84 217.593 10.5307 217.593 10.168C217.593 9.832 217.66 9.512 217.793 9.208C217.926 8.904 218.121 8.64 218.377 8.416C218.638 8.18667 218.961 8.00533 219.345 7.872C219.734 7.73333 220.182 7.664 220.689 7.664C221.254 7.664 221.769 7.75733 222.233 7.944C222.697 8.13067 223.084 8.376 223.393 8.68L222.945 9.392Z" fill="white"/>
<path d="M240 9.5H304" stroke="#4BC8F5"/>
</svg>
