<svg width="106" height="108" viewBox="0 0 106 108" fill="none" xmlns="http://www.w3.org/2000/svg">
<g filter="url(#filter0_d_935_16508)">
<path fill-rule="evenodd" clip-rule="evenodd" d="M52.6211 42.7247C52.6211 44.5925 52.2768 46.4421 51.6079 48.1677C50.9389 49.8933 49.9585 51.4613 48.7225 52.782C47.4865 54.1028 46.0192 55.1504 44.4043 55.8652C42.7894 56.58 41.0585 56.9479 39.3105 56.9479C35.7804 56.9479 32.3948 55.4494 29.8985 52.782C27.4023 50.1147 26 46.4969 26 42.7247C26 38.9525 27.4023 35.3348 29.8985 32.6674C32.3948 30.0001 35.7804 28.5016 39.3105 28.5016C42.8407 28.5016 46.2263 30.0001 48.7225 32.6674C51.2187 35.3348 52.6211 38.9525 52.6211 42.7247V42.7247Z" stroke="url(#paint0_linear_935_16508)" stroke-width="4" stroke-linecap="round" stroke-linejoin="round"/>
<path fill-rule="evenodd" clip-rule="evenodd" d="M66.1113 32.2231C66.1113 35.9953 64.709 39.6131 62.2127 42.2804C59.7165 44.9478 56.3309 46.4463 52.8008 46.4463C49.2706 46.4463 45.885 44.9478 43.3888 42.2804C40.8926 39.6131 39.4902 35.9954 39.4902 32.2231C39.4902 30.3553 39.8345 28.5058 40.5034 26.7802C41.1724 25.0545 42.1528 23.4866 43.3888 22.1658C44.6248 20.8451 46.0921 19.7975 47.707 19.0827C49.3219 18.3679 51.0528 18 52.8008 18C56.3309 18 59.7165 19.4985 62.2127 22.1658C64.709 24.8332 66.1113 28.4509 66.1113 32.2231V32.2231Z" stroke="url(#paint1_linear_935_16508)" stroke-width="4" stroke-linecap="round" stroke-linejoin="round"/>
<path fill-rule="evenodd" clip-rule="evenodd" d="M74.3249 59.4692C74.3249 63.2414 72.9226 66.8592 70.4264 69.5265C67.9302 72.1939 64.5446 73.6924 61.0144 73.6924C59.2664 73.6924 57.5356 73.3245 55.9207 72.6097C54.3057 71.8949 52.8384 70.8473 51.6024 69.5265C50.3664 68.2058 49.386 66.6378 48.7171 64.9122C48.0482 63.1866 47.7039 61.337 47.7039 59.4692C47.7039 55.697 49.1062 52.0793 51.6024 49.4119C54.0986 46.7446 57.4842 45.2461 61.0144 45.2461C64.5446 45.2461 67.9302 46.7446 70.4264 49.4119C72.9226 52.0793 74.3249 55.697 74.3249 59.4692V59.4692Z" stroke="url(#paint2_linear_935_16508)" stroke-width="4" stroke-linecap="round" stroke-linejoin="round"/>
<path fill-rule="evenodd" clip-rule="evenodd" d="M79.459 42.5546C79.459 44.4224 79.1147 46.2719 78.4458 47.9975C77.7769 49.7232 76.7964 51.2911 75.5604 52.6119C74.3244 53.9326 72.8571 54.9802 71.2422 55.695C69.6272 56.4098 67.8964 56.7777 66.1484 56.7777C64.4005 56.7777 62.6696 56.4098 61.0547 55.695C59.4398 54.9802 57.9724 53.9326 56.7364 52.6119C55.5004 51.2911 54.52 49.7232 53.8511 47.9975C53.1821 46.2719 52.8379 44.4224 52.8379 42.5546C52.8379 40.6867 53.1821 38.8372 53.8511 37.1116C54.52 35.386 55.5004 33.818 56.7364 32.4973C57.9724 31.1765 59.4398 30.1288 61.0547 29.4141C62.6696 28.6993 64.4005 28.3314 66.1484 28.3314C67.8964 28.3314 69.6272 28.6993 71.2422 29.4141C72.8571 30.1288 74.3244 31.1765 75.5604 32.4973C76.7964 33.818 77.7769 35.386 78.4458 37.1116C79.1147 38.8372 79.459 40.6867 79.459 42.5546V42.5546Z" stroke="url(#paint3_linear_935_16508)" stroke-width="4" stroke-linecap="round" stroke-linejoin="round"/>
<path fill-rule="evenodd" clip-rule="evenodd" d="M57.726 59.5607C57.726 61.4285 57.3818 63.278 56.7129 65.0036C56.044 66.7293 55.0635 68.2972 53.8275 69.618C52.5915 70.9387 51.1242 71.9863 49.5092 72.7011C47.8943 73.4159 46.1635 73.7838 44.4155 73.7838C42.6675 73.7838 40.9367 73.4159 39.3218 72.7011C37.7069 71.9863 36.2395 70.9387 35.0035 69.618C33.7675 68.2972 32.7871 66.7293 32.1182 65.0036C31.4493 63.278 31.105 61.4285 31.105 59.5607C31.105 57.6929 31.4493 55.8433 32.1182 54.1177C32.7871 52.3921 33.7675 50.8241 35.0035 49.5034C36.2395 48.1826 37.7069 47.1349 39.3218 46.4202C40.9367 45.7054 42.6675 45.3375 44.4155 45.3375C46.1635 45.3375 47.8943 45.7054 49.5092 46.4202C51.1242 47.1349 52.5915 48.1826 53.8275 49.5034C55.0635 50.8241 56.044 52.3921 56.7129 54.1177C57.3818 55.8433 57.726 57.6929 57.726 59.5607Z" stroke="url(#paint4_linear_935_16508)" stroke-width="4" stroke-linecap="round" stroke-linejoin="round"/>
</g>
<defs>
<filter id="filter0_d_935_16508" x="0" y="0" width="105.459" height="107.784" filterUnits="userSpaceOnUse" color-interpolation-filters="sRGB">
<feFlood flood-opacity="0" result="BackgroundImageFix"/>
<feColorMatrix in="SourceAlpha" type="matrix" values="0 0 0 0 0 0 0 0 0 0 0 0 0 0 0 0 0 0 127 0" result="hardAlpha"/>
<feOffset dy="8"/>
<feGaussianBlur stdDeviation="12"/>
<feComposite in2="hardAlpha" operator="out"/>
<feColorMatrix type="matrix" values="0 0 0 0 0.101961 0 0 0 0 0.788235 0 0 0 0 0.854902 0 0 0 0.56 0"/>
<feBlend mode="normal" in2="BackgroundImageFix" result="effect1_dropShadow_935_16508"/>
<feBlend mode="normal" in="SourceGraphic" in2="effect1_dropShadow_935_16508" result="shape"/>
</filter>
<linearGradient id="paint0_linear_935_16508" x1="35.4996" y1="34.4279" x2="58.8412" y2="38.6246" gradientUnits="userSpaceOnUse">
<stop stop-color="#24B9F2"/>
<stop offset="1" stop-color="#58F0F0"/>
</linearGradient>
<linearGradient id="paint1_linear_935_16508" x1="48.9899" y1="23.9263" x2="72.3314" y2="28.123" gradientUnits="userSpaceOnUse">
<stop stop-color="#24B9F2"/>
<stop offset="1" stop-color="#58F0F0"/>
</linearGradient>
<linearGradient id="paint2_linear_935_16508" x1="57.2035" y1="51.1724" x2="80.5451" y2="55.3691" gradientUnits="userSpaceOnUse">
<stop stop-color="#24B9F2"/>
<stop offset="1" stop-color="#58F0F0"/>
</linearGradient>
<linearGradient id="paint3_linear_935_16508" x1="62.3375" y1="34.2577" x2="85.6791" y2="38.4544" gradientUnits="userSpaceOnUse">
<stop stop-color="#24B9F2"/>
<stop offset="1" stop-color="#58F0F0"/>
</linearGradient>
<linearGradient id="paint4_linear_935_16508" x1="40.6046" y1="51.2638" x2="63.9462" y2="55.4605" gradientUnits="userSpaceOnUse">
<stop stop-color="#24B9F2"/>
<stop offset="1" stop-color="#58F0F0"/>
</linearGradient>
</defs>
</svg>
