<svg width="119" height="126" viewBox="0 0 119 126" fill="none" xmlns="http://www.w3.org/2000/svg">
<g filter="url(#filter0_d_935_16523)">
<path fill-rule="evenodd" clip-rule="evenodd" d="M94.6211 16.0004C91.2322 15.964 90.719 18.2565 90.6484 20.908C94.0373 20.9443 94.5505 18.6519 94.6211 16.0004ZM85.5117 16.6262C83.5485 19.8683 84.8587 21.6734 86.6719 23.2574C88.635 20.0154 87.3249 18.2103 85.5117 16.6262ZM81.5605 21.481C79.6098 24.7334 80.9269 26.5309 82.7461 28.1054C84.6968 24.853 83.3797 23.0555 81.5605 21.481ZM89.3867 22.1182C89.2699 22.1166 89.1571 22.1684 89.0723 22.2626C86.422 25.12 84.1282 28.1382 82.8691 31.5872C82.573 32.3985 82.3413 33.2362 82.1719 34.0971C80.4081 32.0311 79.7668 29.8258 77.4902 29.8726C72.0381 29.9847 69.2017 39.937 61.623 39.9994C50.9128 40.0877 51.7617 24.8342 31.6133 24.7107C43.6819 36.0461 31.4419 46.4617 49.3184 54.5066C41.7321 56.17 41.5646 63.7841 31.5605 60.0123C36.2231 62.1358 41.2523 69.0468 50.6406 69.4469V77.7102C39.9553 77.3367 29.5918 76.83 29.5918 76.83V82.0722C29.5918 82.0722 54.527 80.8069 67.0508 80.8069C71.1944 80.8069 74.6395 81.7895 76.1211 82.2876V85.6044C76.1211 86.8203 76.9562 87.798 77.9922 87.798H88.541C89.577 87.798 90.4121 86.8203 90.4121 85.6044V73.3619C90.4121 72.1461 89.577 71.1683 88.541 71.1683H77.9922C76.9562 71.1683 76.1211 72.1461 76.1211 73.3619V76.6122C74.6395 77.1104 71.1944 78.0953 67.0508 78.0953C64.2363 78.0953 60.7575 78.027 57.1133 77.9279V69.0962C75.3948 66.6197 74.7723 52.9283 74.707 49.8007C74.4897 39.3953 78.6162 37.1619 81.8906 36.5749C81.807 38.6833 82.114 40.9293 82.9473 43.3368C82.9696 43.4011 83.0024 43.4596 83.044 43.509C83.0856 43.5583 83.1351 43.5976 83.1896 43.6245C83.2441 43.6514 83.3026 43.6654 83.3617 43.6658C83.4208 43.6662 83.4794 43.653 83.5342 43.6268C83.5889 43.6006 83.6388 43.562 83.6808 43.5133C83.7229 43.4645 83.7564 43.4064 83.7793 43.3424C83.8022 43.2785 83.8142 43.2098 83.8145 43.1404C83.8149 43.071 83.8036 43.0023 83.7812 42.938C82.9681 40.5887 82.6848 38.4551 82.7871 36.4603C83.5843 36.3749 84.3193 36.3388 84.8398 36.2769C84.0857 35.8792 83.471 35.4134 82.9453 34.9223C83.104 33.9188 83.3509 32.9456 83.6953 32.0021C84.8727 28.7768 87.0738 25.8535 89.6816 23.042C89.7499 22.9711 89.7982 22.8777 89.8202 22.774C89.8422 22.6703 89.8368 22.5611 89.8049 22.461C89.7729 22.361 89.7158 22.2746 89.6412 22.2134C89.5665 22.1522 89.4778 22.119 89.3867 22.1182ZM91.9531 24.2339C90.8716 24.3014 89.9396 25.1655 89.0449 26.2258C91.5051 28.9613 93.2122 27.6936 94.8027 25.8086C93.7264 24.6118 92.7943 24.1814 91.9531 24.2339ZM88.3691 29.2835C87.419 29.2838 86.4815 29.8754 85.5488 30.6245C87.5241 33.8564 89.4041 32.9891 91.2695 31.4909C90.2819 29.8749 89.3192 29.2833 88.3691 29.2835ZM76.7383 65.1353C75.7023 65.1353 74.8672 66.1154 74.8672 67.3312V67.7782C74.8672 68.9941 75.7023 69.9718 76.7383 69.9718H89.709C90.745 69.9718 91.5781 68.9941 91.5781 67.7782V67.3312C91.5781 66.1154 90.745 65.1353 89.709 65.1353H76.7383ZM55.0508 69.3185V77.8683C54.2631 77.8447 53.4977 77.8096 52.7031 77.7835V69.4515C53.5146 69.4253 54.2979 69.3811 55.0508 69.3185ZM25.8711 75.2736C24.8351 75.2736 24 76.2513 24 77.4672V81.1828C24 82.3987 24.8351 83.3764 25.8711 83.3764H26.3984C27.4344 83.3764 28.2676 82.3987 28.2676 81.1828V77.4672C28.2676 76.2513 27.4344 75.2736 26.3984 75.2736H25.8711ZM76.7383 88.6576C75.7023 88.6576 74.8672 89.6376 74.8672 90.8535V91.3004C74.8672 92.5163 75.7023 93.4963 76.7383 93.4963H89.709C90.745 93.4963 91.5781 92.5163 91.5781 91.3004V90.8535C91.5781 89.6376 90.745 88.6576 89.709 88.6576H76.7383Z" fill="url(#paint0_linear_935_16523)"/>
</g>
<defs>
<filter id="filter0_d_935_16523" x="0" y="0" width="118.803" height="125.496" filterUnits="userSpaceOnUse" color-interpolation-filters="sRGB">
<feFlood flood-opacity="0" result="BackgroundImageFix"/>
<feColorMatrix in="SourceAlpha" type="matrix" values="0 0 0 0 0 0 0 0 0 0 0 0 0 0 0 0 0 0 127 0" result="hardAlpha"/>
<feOffset dy="8"/>
<feGaussianBlur stdDeviation="12"/>
<feComposite in2="hardAlpha" operator="out"/>
<feColorMatrix type="matrix" values="0 0 0 0 0.101961 0 0 0 0 0.788235 0 0 0 0 0.854902 0 0 0 0.56 0"/>
<feBlend mode="normal" in2="BackgroundImageFix" result="effect1_dropShadow_935_16523"/>
<feBlend mode="normal" in="SourceGraphic" in2="effect1_dropShadow_935_16523" result="shape"/>
</filter>
<linearGradient id="paint0_linear_935_16523" x1="49.2657" y1="32.1451" x2="111.437" y2="43.0578" gradientUnits="userSpaceOnUse">
<stop stop-color="#24B9F2"/>
<stop offset="1" stop-color="#58F0F0"/>
</linearGradient>
</defs>
</svg>
